<mxfile host="65bd71144e">
    <diagram id="dJqdhGn4pqWfd-K8geJk" name="Page-1">
        <mxGraphModel dx="1047" dy="776" grid="1" gridSize="10" guides="1" tooltips="1" connect="1" arrows="1" fold="1" page="1" pageScale="1" pageWidth="850" pageHeight="1100" math="0" shadow="0">
            <root>
                <mxCell id="0"/>
                <mxCell id="1" parent="0"/>
                <mxCell id="21" value="" style="edgeStyle=none;html=1;" edge="1" parent="1" source="2" target="3">
                    <mxGeometry relative="1" as="geometry"/>
                </mxCell>
                <mxCell id="2" value="Inicio" style="ellipse;whiteSpace=wrap;html=1;fillColor=#60a917;fontColor=#ffffff;strokeColor=#2D7600;" vertex="1" parent="1">
                    <mxGeometry x="365" width="120" height="80" as="geometry"/>
                </mxCell>
                <mxCell id="22" value="" style="edgeStyle=none;html=1;" edge="1" parent="1" source="3" target="4">
                    <mxGeometry relative="1" as="geometry"/>
                </mxCell>
                <mxCell id="3" value="a&lt;br&gt;b&lt;br&gt;c" style="shape=parallelogram;perimeter=parallelogramPerimeter;whiteSpace=wrap;html=1;fixedSize=1;fillColor=#008a00;fontColor=#ffffff;strokeColor=#005700;" vertex="1" parent="1">
                    <mxGeometry x="365" y="120" width="120" height="60" as="geometry"/>
                </mxCell>
                <mxCell id="4" value="a &amp;gt; b + c&amp;nbsp;&lt;br&gt;or&lt;br&gt;b &amp;gt; a + c&lt;br&gt;or&amp;nbsp;&lt;br&gt;c &amp;gt; a + b" style="rhombus;whiteSpace=wrap;html=1;fillColor=#1ba1e2;fontColor=#ffffff;strokeColor=#006EAF;" vertex="1" parent="1">
                    <mxGeometry x="349" y="240" width="152" height="130" as="geometry"/>
                </mxCell>
                <mxCell id="5" value="rta = Hay un error con el triangulo." style="rounded=0;whiteSpace=wrap;html=1;fillColor=#fa6800;fontColor=#000000;strokeColor=#C73500;" vertex="1" parent="1">
                    <mxGeometry x="630" y="400" width="120" height="60" as="geometry"/>
                </mxCell>
                <mxCell id="6" value="a &amp;gt; b and a &amp;gt; c" style="rhombus;whiteSpace=wrap;html=1;fillColor=#0050ef;fontColor=#ffffff;strokeColor=#001DBC;" vertex="1" parent="1">
                    <mxGeometry x="160" y="400" width="110" height="100" as="geometry"/>
                </mxCell>
                <mxCell id="7" value="b = cateto1&lt;br&gt;c = cateto2&lt;br&gt;a = hipotenusa" style="rounded=0;whiteSpace=wrap;html=1;fillColor=#d80073;fontColor=#ffffff;strokeColor=#A50040;" vertex="1" parent="1">
                    <mxGeometry x="20" y="560" width="120" height="60" as="geometry"/>
                </mxCell>
                <mxCell id="8" value="b &amp;gt; a and b &amp;gt; c" style="rhombus;whiteSpace=wrap;html=1;fillColor=#0050ef;fontColor=#ffffff;strokeColor=#001DBC;" vertex="1" parent="1">
                    <mxGeometry x="300" y="560" width="110" height="100" as="geometry"/>
                </mxCell>
                <mxCell id="9" value="a = cateto1&lt;br&gt;c = cateto2&lt;br&gt;b = hipotenusa" style="rounded=0;whiteSpace=wrap;html=1;fillColor=#d80073;fontColor=#ffffff;strokeColor=#A50040;" vertex="1" parent="1">
                    <mxGeometry x="155" y="700" width="120" height="60" as="geometry"/>
                </mxCell>
                <mxCell id="11" value="a = cateto1&lt;br&gt;b = cateto2&lt;br&gt;c = hipotenusa" style="rounded=0;whiteSpace=wrap;html=1;fillColor=#d80073;fontColor=#ffffff;strokeColor=#A50040;" vertex="1" parent="1">
                    <mxGeometry x="430" y="700" width="120" height="60" as="geometry"/>
                </mxCell>
                <mxCell id="13" value="(hipotenusa ** 2) == ((cateto1 ** 2)+(cateto2 ** 2))" style="rhombus;whiteSpace=wrap;html=1;fillColor=#0050ef;strokeColor=#001DBC;" vertex="1" parent="1">
                    <mxGeometry x="208" y="850" width="141" height="140" as="geometry"/>
                </mxCell>
                <mxCell id="14" value="rta = El triangulo es recto" style="rounded=0;whiteSpace=wrap;html=1;fillColor=#fa6800;fontColor=#000000;strokeColor=#C73500;" vertex="1" parent="1">
                    <mxGeometry x="120" y="1050" width="120" height="60" as="geometry"/>
                </mxCell>
                <mxCell id="16" value="(hipotenusa ** 2) &gt; ((cateto1 ** 2)+(cateto2 ** 2))" style="rhombus;whiteSpace=wrap;html=1;fillColor=#0050ef;strokeColor=#001DBC;" vertex="1" parent="1">
                    <mxGeometry x="360" y="1040" width="141" height="140" as="geometry"/>
                </mxCell>
                <mxCell id="17" value="rta = El triangulo es agudo" style="rounded=0;whiteSpace=wrap;html=1;fillColor=#fa6800;fontColor=#000000;strokeColor=#C73500;" vertex="1" parent="1">
                    <mxGeometry x="530" y="1220" width="120" height="60" as="geometry"/>
                </mxCell>
                <mxCell id="18" value="rta = El triangulo es obtuso" style="rounded=0;whiteSpace=wrap;html=1;fillColor=#fa6800;fontColor=#000000;strokeColor=#C73500;" vertex="1" parent="1">
                    <mxGeometry x="250" y="1220" width="120" height="60" as="geometry"/>
                </mxCell>
                <mxCell id="40" value="" style="edgeStyle=none;html=1;" edge="1" parent="1" source="19" target="20">
                    <mxGeometry relative="1" as="geometry"/>
                </mxCell>
                <mxCell id="19" value="rta" style="shape=document;whiteSpace=wrap;html=1;boundedLbl=1;fillColor=#e3c800;fontColor=#000000;strokeColor=#B09500;" vertex="1" parent="1">
                    <mxGeometry x="365" y="1390" width="120" height="80" as="geometry"/>
                </mxCell>
                <mxCell id="20" value="Fin" style="ellipse;whiteSpace=wrap;html=1;fillColor=#a0522d;fontColor=#ffffff;strokeColor=#6D1F00;" vertex="1" parent="1">
                    <mxGeometry x="365" y="1540" width="120" height="80" as="geometry"/>
                </mxCell>
                <mxCell id="23" value="" style="endArrow=classic;html=1;exitX=0;exitY=0.5;exitDx=0;exitDy=0;entryX=0.5;entryY=0;entryDx=0;entryDy=0;" edge="1" parent="1" source="4" target="6">
                    <mxGeometry width="50" height="50" relative="1" as="geometry">
                        <mxPoint x="210" y="300" as="sourcePoint"/>
                        <mxPoint x="260" y="250" as="targetPoint"/>
                        <Array as="points">
                            <mxPoint x="215" y="305"/>
                        </Array>
                    </mxGeometry>
                </mxCell>
                <mxCell id="24" value="" style="endArrow=classic;html=1;exitX=1;exitY=0.5;exitDx=0;exitDy=0;entryX=0.5;entryY=0;entryDx=0;entryDy=0;" edge="1" parent="1" source="4" target="5">
                    <mxGeometry width="50" height="50" relative="1" as="geometry">
                        <mxPoint x="560" y="350" as="sourcePoint"/>
                        <mxPoint x="610" y="300" as="targetPoint"/>
                        <Array as="points">
                            <mxPoint x="690" y="305"/>
                        </Array>
                    </mxGeometry>
                </mxCell>
                <mxCell id="25" value="" style="endArrow=classic;html=1;exitX=0;exitY=0.5;exitDx=0;exitDy=0;entryX=0.5;entryY=0;entryDx=0;entryDy=0;" edge="1" parent="1" source="6" target="7">
                    <mxGeometry width="50" height="50" relative="1" as="geometry">
                        <mxPoint x="190" y="610" as="sourcePoint"/>
                        <mxPoint x="240" y="560" as="targetPoint"/>
                        <Array as="points">
                            <mxPoint x="80" y="450"/>
                        </Array>
                    </mxGeometry>
                </mxCell>
                <mxCell id="26" value="" style="endArrow=classic;html=1;exitX=1;exitY=0.5;exitDx=0;exitDy=0;entryX=0.5;entryY=0;entryDx=0;entryDy=0;" edge="1" parent="1" source="6" target="8">
                    <mxGeometry width="50" height="50" relative="1" as="geometry">
                        <mxPoint x="390" y="670" as="sourcePoint"/>
                        <mxPoint x="440" y="620" as="targetPoint"/>
                        <Array as="points">
                            <mxPoint x="355" y="450"/>
                        </Array>
                    </mxGeometry>
                </mxCell>
                <mxCell id="27" value="" style="endArrow=classic;html=1;exitX=0;exitY=0.5;exitDx=0;exitDy=0;entryX=0.5;entryY=0;entryDx=0;entryDy=0;" edge="1" parent="1" source="8" target="9">
                    <mxGeometry width="50" height="50" relative="1" as="geometry">
                        <mxPoint x="230" y="620" as="sourcePoint"/>
                        <mxPoint x="280" y="570" as="targetPoint"/>
                        <Array as="points">
                            <mxPoint x="215" y="610"/>
                        </Array>
                    </mxGeometry>
                </mxCell>
                <mxCell id="28" value="" style="endArrow=classic;html=1;exitX=1;exitY=0.5;exitDx=0;exitDy=0;entryX=0.5;entryY=0;entryDx=0;entryDy=0;" edge="1" parent="1" source="8" target="11">
                    <mxGeometry width="50" height="50" relative="1" as="geometry">
                        <mxPoint x="450" y="690" as="sourcePoint"/>
                        <mxPoint x="500" y="640" as="targetPoint"/>
                        <Array as="points">
                            <mxPoint x="490" y="610"/>
                        </Array>
                    </mxGeometry>
                </mxCell>
                <mxCell id="29" value="" style="endArrow=classic;html=1;exitX=0.5;exitY=1;exitDx=0;exitDy=0;entryX=0.5;entryY=0;entryDx=0;entryDy=0;" edge="1" parent="1" source="7" target="13">
                    <mxGeometry width="50" height="50" relative="1" as="geometry">
                        <mxPoint x="50" y="830" as="sourcePoint"/>
                        <mxPoint x="100" y="780" as="targetPoint"/>
                        <Array as="points">
                            <mxPoint x="80" y="800"/>
                            <mxPoint x="279" y="800"/>
                        </Array>
                    </mxGeometry>
                </mxCell>
                <mxCell id="30" value="" style="endArrow=classic;html=1;exitX=0.5;exitY=1;exitDx=0;exitDy=0;" edge="1" parent="1" source="9">
                    <mxGeometry width="50" height="50" relative="1" as="geometry">
                        <mxPoint x="350" y="840" as="sourcePoint"/>
                        <mxPoint x="280" y="850" as="targetPoint"/>
                        <Array as="points">
                            <mxPoint x="215" y="800"/>
                            <mxPoint x="280" y="800"/>
                        </Array>
                    </mxGeometry>
                </mxCell>
                <mxCell id="31" value="" style="endArrow=classic;html=1;exitX=0.5;exitY=1;exitDx=0;exitDy=0;entryX=0.5;entryY=0;entryDx=0;entryDy=0;" edge="1" parent="1" source="11" target="13">
                    <mxGeometry width="50" height="50" relative="1" as="geometry">
                        <mxPoint x="440" y="890" as="sourcePoint"/>
                        <mxPoint x="490" y="840" as="targetPoint"/>
                        <Array as="points">
                            <mxPoint x="490" y="800"/>
                            <mxPoint x="279" y="800"/>
                        </Array>
                    </mxGeometry>
                </mxCell>
                <mxCell id="32" value="" style="endArrow=classic;html=1;exitX=0;exitY=0.5;exitDx=0;exitDy=0;entryX=0.5;entryY=0;entryDx=0;entryDy=0;" edge="1" parent="1" source="13" target="14">
                    <mxGeometry width="50" height="50" relative="1" as="geometry">
                        <mxPoint x="50" y="1010" as="sourcePoint"/>
                        <mxPoint x="100" y="960" as="targetPoint"/>
                        <Array as="points">
                            <mxPoint x="180" y="920"/>
                        </Array>
                    </mxGeometry>
                </mxCell>
                <mxCell id="33" value="" style="endArrow=classic;html=1;exitX=1;exitY=0.5;exitDx=0;exitDy=0;entryX=0.5;entryY=0;entryDx=0;entryDy=0;" edge="1" parent="1" source="13" target="16">
                    <mxGeometry width="50" height="50" relative="1" as="geometry">
                        <mxPoint x="450" y="1010" as="sourcePoint"/>
                        <mxPoint x="500" y="960" as="targetPoint"/>
                        <Array as="points">
                            <mxPoint x="431" y="920"/>
                        </Array>
                    </mxGeometry>
                </mxCell>
                <mxCell id="34" value="" style="endArrow=classic;html=1;exitX=0;exitY=0.5;exitDx=0;exitDy=0;entryX=0.5;entryY=0;entryDx=0;entryDy=0;" edge="1" parent="1" source="16" target="18">
                    <mxGeometry width="50" height="50" relative="1" as="geometry">
                        <mxPoint x="270" y="1210" as="sourcePoint"/>
                        <mxPoint x="320" y="1160" as="targetPoint"/>
                        <Array as="points">
                            <mxPoint x="310" y="1110"/>
                        </Array>
                    </mxGeometry>
                </mxCell>
                <mxCell id="35" value="" style="endArrow=classic;html=1;exitX=1;exitY=0.5;exitDx=0;exitDy=0;entryX=0.5;entryY=0;entryDx=0;entryDy=0;" edge="1" parent="1" source="16" target="17">
                    <mxGeometry width="50" height="50" relative="1" as="geometry">
                        <mxPoint x="560" y="1180" as="sourcePoint"/>
                        <mxPoint x="610" y="1130" as="targetPoint"/>
                        <Array as="points">
                            <mxPoint x="590" y="1110"/>
                        </Array>
                    </mxGeometry>
                </mxCell>
                <mxCell id="36" value="" style="endArrow=classic;html=1;exitX=0.5;exitY=1;exitDx=0;exitDy=0;entryX=0.5;entryY=0;entryDx=0;entryDy=0;" edge="1" parent="1" source="14" target="19">
                    <mxGeometry width="50" height="50" relative="1" as="geometry">
                        <mxPoint x="170" y="1400" as="sourcePoint"/>
                        <mxPoint x="220" y="1350" as="targetPoint"/>
                        <Array as="points">
                            <mxPoint x="180" y="1360"/>
                            <mxPoint x="425" y="1360"/>
                        </Array>
                    </mxGeometry>
                </mxCell>
                <mxCell id="37" value="" style="endArrow=classic;html=1;exitX=0.5;exitY=1;exitDx=0;exitDy=0;entryX=0.5;entryY=0;entryDx=0;entryDy=0;" edge="1" parent="1" source="18" target="19">
                    <mxGeometry width="50" height="50" relative="1" as="geometry">
                        <mxPoint x="350" y="1330" as="sourcePoint"/>
                        <mxPoint x="400" y="1280" as="targetPoint"/>
                        <Array as="points">
                            <mxPoint x="310" y="1360"/>
                            <mxPoint x="425" y="1360"/>
                        </Array>
                    </mxGeometry>
                </mxCell>
                <mxCell id="38" value="" style="endArrow=classic;html=1;exitX=0.5;exitY=1;exitDx=0;exitDy=0;entryX=0.5;entryY=0;entryDx=0;entryDy=0;" edge="1" parent="1" source="17" target="19">
                    <mxGeometry width="50" height="50" relative="1" as="geometry">
                        <mxPoint x="620" y="1420" as="sourcePoint"/>
                        <mxPoint x="670" y="1370" as="targetPoint"/>
                        <Array as="points">
                            <mxPoint x="590" y="1360"/>
                            <mxPoint x="425" y="1360"/>
                        </Array>
                    </mxGeometry>
                </mxCell>
                <mxCell id="39" value="" style="endArrow=classic;html=1;exitX=0.5;exitY=1;exitDx=0;exitDy=0;entryX=0.5;entryY=0;entryDx=0;entryDy=0;" edge="1" parent="1" source="5" target="19">
                    <mxGeometry width="50" height="50" relative="1" as="geometry">
                        <mxPoint x="610" y="660" as="sourcePoint"/>
                        <mxPoint x="660" y="610" as="targetPoint"/>
                        <Array as="points">
                            <mxPoint x="690" y="1360"/>
                            <mxPoint x="425" y="1360"/>
                        </Array>
                    </mxGeometry>
                </mxCell>
                <mxCell id="46" value="Si" style="text;html=1;align=center;verticalAlign=middle;resizable=0;points=[];autosize=1;strokeColor=none;fillColor=none;" vertex="1" parent="1">
                    <mxGeometry x="575" y="280" width="30" height="30" as="geometry"/>
                </mxCell>
                <mxCell id="47" value="No" style="text;html=1;align=center;verticalAlign=middle;resizable=0;points=[];autosize=1;strokeColor=none;fillColor=none;" vertex="1" parent="1">
                    <mxGeometry x="290" y="285" width="40" height="30" as="geometry"/>
                </mxCell>
                <mxCell id="48" value="Si" style="text;html=1;align=center;verticalAlign=middle;resizable=0;points=[];autosize=1;strokeColor=none;fillColor=none;" vertex="1" parent="1">
                    <mxGeometry x="115" y="425" width="30" height="30" as="geometry"/>
                </mxCell>
                <mxCell id="49" value="No" style="text;html=1;align=center;verticalAlign=middle;resizable=0;points=[];autosize=1;strokeColor=none;fillColor=none;" vertex="1" parent="1">
                    <mxGeometry x="300" y="425" width="40" height="30" as="geometry"/>
                </mxCell>
                <mxCell id="50" value="Si" style="text;html=1;align=center;verticalAlign=middle;resizable=0;points=[];autosize=1;strokeColor=none;fillColor=none;" vertex="1" parent="1">
                    <mxGeometry x="245" y="585" width="30" height="30" as="geometry"/>
                </mxCell>
                <mxCell id="51" value="No" style="text;html=1;align=center;verticalAlign=middle;resizable=0;points=[];autosize=1;strokeColor=none;fillColor=none;" vertex="1" parent="1">
                    <mxGeometry x="430" y="585" width="40" height="30" as="geometry"/>
                </mxCell>
                <mxCell id="52" value="Si" style="text;html=1;align=center;verticalAlign=middle;resizable=0;points=[];autosize=1;strokeColor=none;fillColor=none;" vertex="1" parent="1">
                    <mxGeometry x="175" y="895" width="30" height="30" as="geometry"/>
                </mxCell>
                <mxCell id="53" value="No" style="text;html=1;align=center;verticalAlign=middle;resizable=0;points=[];autosize=1;strokeColor=none;fillColor=none;" vertex="1" parent="1">
                    <mxGeometry x="370" y="895" width="40" height="30" as="geometry"/>
                </mxCell>
                <mxCell id="54" value="Si" style="text;html=1;align=center;verticalAlign=middle;resizable=0;points=[];autosize=1;strokeColor=none;fillColor=none;" vertex="1" parent="1">
                    <mxGeometry x="315" y="1085" width="30" height="30" as="geometry"/>
                </mxCell>
                <mxCell id="56" value="No" style="text;html=1;align=center;verticalAlign=middle;resizable=0;points=[];autosize=1;strokeColor=none;fillColor=none;" vertex="1" parent="1">
                    <mxGeometry x="528" y="1086" width="40" height="30" as="geometry"/>
                </mxCell>
            </root>
        </mxGraphModel>
    </diagram>
</mxfile>